<?xml version="1.0" standalone="no"?>
<!DOCTYPE svg PUBLIC "-//W3C//DTD SVG 20010904//EN"
 "http://www.w3.org/TR/2001/REC-SVG-20010904/DTD/svg10.dtd">
<svg version="1.0" xmlns="http://www.w3.org/2000/svg"
 width="446.000000pt" height="333.000000pt" viewBox="0 0 446.000000 333.000000"
 preserveAspectRatio="xMidYMid meet">
<metadata>
Created by potrace 1.16, written by Peter Selinger 2001-2019
</metadata>
<g transform="translate(0.000000,333.000000) scale(0.100000,-0.100000)"
fill="#000000" stroke="none">
<path d="M0 1665 l0 -1665 2230 0 2230 0 0 1665 0 1665 -2230 0 -2230 0 0
-1665z m2258 1294 c24 -33 130 -140 235 -238 339 -316 426 -420 457 -543 16
-62 1 -111 -57 -189 l-46 -64 -23 91 c-35 142 -65 195 -179 310 -55 55 -166
153 -247 218 -162 130 -215 193 -245 295 -18 61 -22 183 -9 246 l8 40 31 -54
c18 -30 52 -80 75 -112z m-629 61 c57 -78 177 -174 576 -460 247 -177 402
-298 444 -345 100 -114 132 -239 97 -375 -8 -30 -13 -56 -11 -58 5 -5 335 237
377 276 29 27 35 39 27 49 -9 10 0 23 37 57 l49 44 -22 24 c-13 13 -23 27 -23
30 0 3 23 12 52 18 51 13 52 13 30 31 -12 9 -22 19 -22 22 0 2 20 7 44 10 24
4 60 14 80 24 l36 17 -25 26 -25 27 79 18 79 18 -37 51 c-62 83 -78 167 -46
244 l16 37 30 -55 c31 -57 57 -90 71 -90 4 0 8 28 9 63 0 34 4 70 8 81 6 15
10 11 27 -25 11 -25 56 -81 107 -132 49 -49 86 -94 84 -100 -2 -7 37 -32 92
-59 66 -32 114 -64 154 -102 59 -58 64 -72 46 -124 -9 -27 -7 -35 14 -64 46
-62 58 -133 36 -213 -17 -61 -76 -115 -128 -115 -18 0 -19 2 -5 28 32 61 1
152 -52 152 -29 0 -29 0 -7 -59 9 -27 13 -56 9 -66 -6 -16 -10 -13 -31 21
l-24 39 -3 -55 -3 -55 -18 32 c-31 58 -81 106 -135 130 -29 12 -61 23 -70 23
-34 0 -54 -65 -57 -190 -4 -130 -30 -247 -70 -316 -22 -37 -44 -53 -154 -113
-106 -59 -140 -83 -197 -144 -173 -183 -452 -516 -487 -582 -55 -103 -4 -347
90 -430 19 -17 36 -44 39 -61 6 -30 4 -31 -33 -37 -48 -8 -117 -9 -137 -1 -18
7 -31 45 -46 134 -8 48 -25 88 -66 157 -86 145 -97 176 -98 273 -2 82 -3 85
-26 88 -14 2 -104 24 -200 48 -225 57 -335 71 -431 55 -129 -21 -178 -53 -377
-241 -195 -184 -229 -232 -239 -324 -5 -50 -3 -58 26 -93 46 -56 42 -70 -21
-75 -29 -2 -63 -1 -75 3 -31 11 -65 107 -71 201 l-5 77 43 42 c24 23 53 65 66
93 29 64 66 220 93 396 12 74 23 145 26 157 5 22 4 22 -67 -8 -116 -48 -196
-69 -260 -69 -89 0 -136 18 -189 71 -38 37 -49 57 -59 102 -25 110 16 214 103
259 36 19 60 23 171 25 110 2 134 5 155 21 50 37 53 101 6 148 -44 44 -91 31
-270 -75 -136 -81 -208 -85 -284 -16 -45 41 -123 154 -153 222 -22 49 -37 173
-22 173 5 0 24 -24 42 -52 19 -29 31 -44 27 -33 -26 82 -24 152 6 205 l14 25
3 -25 c9 -71 34 -118 92 -174 76 -74 93 -119 62 -168 -46 -71 -48 -79 -27 -94
43 -32 138 -8 296 75 155 80 212 81 290 3 46 -46 69 -97 69 -153 0 -45 -30
-115 -63 -147 -43 -40 -91 -52 -218 -52 -58 0 -120 -5 -137 -11 -40 -14 -62
-49 -62 -100 0 -57 50 -109 107 -110 120 -3 182 15 356 102 101 50 254 114
479 198 97 36 178 70 180 76 2 5 -37 34 -87 65 -119 73 -160 115 -180 184 -14
46 -14 65 -4 115 21 110 5 113 280 -66 408 -267 439 -286 439 -264 0 14 -171
173 -262 244 -46 36 -153 111 -238 167 -212 140 -243 171 -259 253 -8 45 1
138 20 209 l10 39 45 -50 c63 -70 137 -127 378 -290 360 -244 423 -300 451
-394 21 -72 19 -94 -21 -218 -19 -60 -34 -115 -32 -121 2 -6 19 12 37 41 116
181 116 352 0 486 -32 36 -186 154 -603 459 -283 207 -338 276 -345 433 -2 64
2 99 19 155 18 60 24 70 33 56 7 -9 32 -44 56 -78z m1431 -2082 c1 -230 42
-449 103 -539 12 -19 48 -46 81 -63 68 -35 82 -52 72 -89 -6 -27 -7 -27 -105
-27 -119 0 -123 3 -158 127 -16 60 -46 127 -93 208 -67 118 -110 222 -110 267
0 13 12 41 26 63 29 43 164 185 176 185 5 0 8 -60 8 -132z m-1254 -75 c-3 -10
-21 -69 -40 -130 -43 -138 -53 -219 -36 -307 11 -60 15 -68 45 -82 38 -18 60
-40 69 -70 6 -19 2 -22 -36 -28 -54 -7 -115 7 -133 31 -46 61 -136 334 -134
408 2 109 98 192 222 194 42 1 48 -1 43 -16z"/>
</g>
</svg>
