<?xml version="1.0" standalone="no"?>
<!DOCTYPE svg PUBLIC "-//W3C//DTD SVG 20010904//EN"
 "http://www.w3.org/TR/2001/REC-SVG-20010904/DTD/svg10.dtd">
<svg version="1.0" xmlns="http://www.w3.org/2000/svg"
 width="422.000000pt" height="343.000000pt" viewBox="0 0 422.000000 343.000000"
 preserveAspectRatio="xMidYMid meet">
<metadata>
Created by potrace 1.16, written by Peter Selinger 2001-2019
</metadata>
<g transform="translate(0.000000,343.000000) scale(0.100000,-0.100000)"
fill="#000000" stroke="none">
<path d="M1392 3158 c-20 -25 -46 -134 -46 -198 0 -53 6 -78 31 -132 56 -119
102 -159 592 -513 277 -201 346 -262 386 -342 25 -50 29 -69 28 -143 0 -96
-20 -163 -71 -245 -17 -27 -32 -47 -32 -43 0 4 16 55 35 112 37 111 41 140 25
196 -28 103 -106 174 -430 392 -241 163 -335 233 -404 304 -64 65 -67 63 -91
-54 -19 -94 -15 -138 20 -197 33 -57 63 -82 210 -178 165 -107 305 -212 423
-316 87 -78 106 -101 81 -101 -5 0 -155 94 -332 210 -254 165 -324 207 -334
197 -7 -6 -20 -42 -29 -78 -15 -57 -16 -71 -4 -113 18 -65 88 -140 189 -199
44 -26 83 -52 85 -56 3 -5 -65 -34 -152 -66 -196 -71 -291 -110 -462 -191
-210 -98 -260 -114 -350 -114 -43 0 -86 3 -95 6 -39 15 -60 119 -32 158 18 24
76 35 187 36 52 0 112 5 133 11 84 23 154 129 144 216 -6 54 -49 126 -100 167
-33 26 -47 31 -95 31 -50 0 -72 -7 -169 -58 -114 -58 -200 -87 -260 -87 -55 0
-55 35 -1 102 19 25 20 31 10 67 -8 26 -30 56 -66 88 -61 56 -75 79 -91 147
-14 61 -28 68 -51 24 -18 -36 -23 -97 -11 -143 l8 -30 -21 33 c-29 47 -45 36
-45 -29 1 -69 40 -158 116 -260 117 -158 187 -170 359 -63 152 94 215 112 261
75 20 -16 24 -29 24 -71 0 -73 -12 -80 -150 -80 -142 0 -202 -17 -255 -71
-135 -139 -55 -367 143 -409 67 -14 128 -2 259 50 56 21 104 37 106 35 7 -7
-35 -265 -64 -395 -32 -144 -53 -191 -109 -251 -57 -61 -61 -98 -25 -221 27
-90 63 -122 129 -112 45 6 71 19 71 34 0 5 -12 23 -27 40 -23 28 -27 41 -26
95 1 90 30 144 127 235 43 41 123 117 177 168 197 187 340 208 734 107 95 -25
183 -45 194 -45 19 0 20 -4 14 -60 -7 -75 15 -140 93 -272 54 -93 61 -111 82
-222 17 -90 38 -106 133 -106 115 0 130 38 46 123 -60 62 -88 144 -94 277 -4
79 -2 114 9 140 23 54 277 362 466 565 72 77 98 97 188 145 57 30 120 68 139
83 71 57 113 180 121 357 6 130 19 190 43 190 24 0 98 -28 127 -47 14 -9 39
-41 56 -70 33 -59 51 -64 56 -14 l3 32 19 -23 c15 -19 21 -21 31 -10 13 12 7
52 -16 105 -5 13 -2 17 13 17 43 0 66 -73 43 -134 -23 -60 58 -51 112 13 63
76 61 208 -5 278 -15 16 -19 29 -14 47 3 15 9 38 12 52 10 40 -106 148 -215
200 -44 21 -81 42 -81 47 0 4 -39 50 -87 100 -49 51 -95 106 -103 122 -24 50
-31 57 -46 44 -9 -7 -14 -33 -14 -70 0 -33 -4 -59 -10 -59 -11 0 -60 70 -60
86 0 6 -7 17 -15 24 -22 18 -35 3 -51 -59 -17 -65 0 -129 52 -197 40 -53 37
-59 -33 -70 -23 -3 -50 -12 -60 -19 -17 -13 -17 -14 1 -33 25 -28 15 -39 -52
-53 -67 -14 -80 -23 -64 -42 13 -16 6 -27 -17 -27 -9 0 -27 -7 -40 -16 l-22
-16 22 -24 23 -24 -45 -46 c-26 -27 -43 -52 -41 -63 2 -11 -10 -31 -25 -45
-31 -29 -306 -231 -336 -247 -18 -10 -18 -8 -10 23 4 18 8 71 8 118 0 191 -80
275 -653 684 -355 253 -442 326 -499 419 -38 60 -44 65 -61 45z"/>
<path d="M1982 3157 c-19 -22 -25 -138 -12 -202 15 -75 59 -163 108 -217 20
-23 80 -75 132 -117 339 -270 395 -338 444 -541 12 -47 26 -85 33 -85 29 0
122 154 123 202 0 47 -42 131 -104 208 -81 101 -161 183 -404 413 -160 153
-201 198 -244 268 -28 46 -54 84 -58 84 -4 0 -12 -6 -18 -13z"/>
<path d="M2812 1063 c-37 -37 -83 -90 -101 -116 -51 -75 -42 -106 112 -388 20
-36 44 -95 53 -130 18 -74 57 -147 84 -157 10 -4 56 -5 101 -2 78 5 84 7 99
32 14 26 13 29 -20 63 -19 19 -52 41 -73 47 -29 9 -43 21 -57 49 -63 123 -89
253 -98 498 -5 113 -11 166 -19 168 -6 3 -43 -26 -81 -64z"/>
<path d="M1573 950 c-93 -19 -171 -83 -194 -160 -21 -69 14 -213 90 -375 50
-105 67 -120 142 -120 41 0 63 5 75 16 15 16 13 20 -21 57 -20 23 -45 44 -55
47 -14 4 -22 24 -31 77 -16 90 -4 180 45 333 26 80 32 113 24 122 -12 14 -15
14 -75 3z"/>
</g>
</svg>
