<?xml version="1.0" encoding="utf-8"?>
<!-- Generator: Adobe Illustrator 16.0.0, SVG Export Plug-In . SVG Version: 6.00 Build 0)  -->
<!DOCTYPE svg PUBLIC "-//W3C//DTD SVG 1.1//EN" "http://www.w3.org/Graphics/SVG/1.1/DTD/svg11.dtd">
<svg version="1.1" id="Layer_1" xmlns="http://www.w3.org/2000/svg" xmlns:xlink="http://www.w3.org/1999/xlink" x="0px" y="0px"
	 width="564.941px" height="564.82px" viewBox="0 0 564.941 564.82" enable-background="new 0 0 564.941 564.82"
	 xml:space="preserve">
<path fill-rule="evenodd" clip-rule="evenodd" fill="#101119" d="M0.941,0.07c186.852,0,373.703,0.007,560.555-0.07
	c2.812-0.001,3.446,0.633,3.445,3.445c-0.078,185.977-0.078,371.954,0,557.93c0.001,2.812-0.634,3.446-3.445,3.445
	c-186.852-0.078-373.703-0.07-560.555-0.07c-0.692-1.298-0.349-2.7-0.35-4.049c-0.018-185.526-0.018-371.052,0-556.578
	C0.592,2.773,0.25,1.369,0.941,0.07z"/>
<path fill-rule="evenodd" clip-rule="evenodd" fill="#909398" d="M0.941,0.07c0,188.227,0,376.453,0,564.68
	c-0.231-0.163-0.782,0.379-0.758-0.374c0.032-0.998,0.008-1.999,0.008-2.998c0-185.979-0.002-371.957,0.046-557.936
	C0.238,2.346-0.627,0.901,0.941,0.07z"/>
<path fill-rule="evenodd" clip-rule="evenodd" fill="#FEFEFE" d="M352.569,141.503c2.402-0.741,4.737-1.461,7.062-2.179
	c-0.036-1.467-1.983-1.458-2.192-3.11c3.978-0.61,7.966-1.324,11.38-3.693c-0.774-1.528-2.611-2.07-3.172-3.964
	c3.753-0.888,7.454-1.763,11.769-2.784c-6.767-7.22-10.369-15.013-5.097-24.98c2.044,4.271,3.476,8.31,7.417,11.024
	c1.256-3.791,0.234-7.72,1.813-11.973c2.981,7.398,9.517,11.282,13.267,17.043c3.46,5.315,8.487,6.817,13.171,9.493
	c3.734,2.132,6.862,4.96,9.95,7.869c2.146,2.022,2.826,4.442,1.408,7.109c-0.932,1.751-0.879,2.872,0.551,4.538
	c4.919,5.733,4.914,12.371,2.276,19.013c-1.611,4.06-5.119,5.875-9.814,6.13c0.602-1.566,1.221-2.857,1.594-4.217
	c0.863-3.154,0.064-5.923-2.244-8.24c-1.047-1.05-2.43-1.724-3.725-0.979c-1.677,0.964-0.092,2.158,0.271,3.159
	c0.826,2.287,2.148,4.484,0.584,7.461c-1.205-1.969-2.188-3.575-3.563-5.819c0,2.992,0,5.271,0,7.618
	c-1.778-0.087-1.769-1.53-2.198-2.375c-2.911-5.725-7.638-9.022-13.689-10.719c-1.767-0.496-2.857,0.04-3.616,1.648
	c-1.457,3.09-2.469,6.27-2.159,9.742c0.653,7.336-0.608,14.414-2.852,21.365c-1.638,5.076-4.39,9.159-9.556,11.284
	c-11.019,4.53-19.268,12.437-26.85,21.407c-8.14,9.629-16.188,19.338-24.418,28.885c-5.677,6.586-7.375,13.776-5.393,21.901
	c1.578,6.47,2.723,13.292,8.887,17.527c0.914,0.629,1.248,1.798,1.663,2.864c1,2.568,0.724,3.957-2.53,3.668
	c-1.971-0.176-3.982,0.17-5.976,0.182c-5.165,0.028-5.998-0.546-6.633-5.836c-0.742-6.19-2.634-11.827-6.147-17.037
	c-4.888-7.246-8.828-14.87-6.682-24.117c0.296-1.274-0.28-1.829-1.5-2.016c-12.213-1.867-23.81-6.496-36.135-7.936
	c-12.727-1.487-23.837,1.709-32.629,11.186c-6.051,6.522-13.343,11.686-19.281,18.29c-2.783,3.095-4.973,6.517-5.843,10.694
	c-0.791,3.799-1.181,7.384,2.288,10.276c1.01,0.843,1.97,2.26,1.473,3.633c-0.519,1.434-2.187,0.844-3.338,0.955
	c-7.255,0.703-7.836,0.282-9.985-6.778c-0.984-3.234-1.624-6.518-1.657-9.927c-0.032-3.197,0.871-5.779,3.569-7.776
	c3.709-2.744,5.167-6.92,6.382-11.144c3.596-12.492,5.276-25.342,7.272-38.351c-6.419,2.296-12.286,5.363-18.75,6.801
	c-3.475,0.773-6.979,0.907-10.426,0.349c-12.804-2.072-19.061-16.439-12.009-27.4c3.519-5.47,9.095-6.618,14.989-6.802
	c2.856-0.089,5.725,0.337,8.591,0.417c7.078,0.196,11.146-4.473,8.896-10.137c-1.667-4.195-4.922-5.665-9.376-4.167
	c-4.417,1.487-8.217,4.149-12.155,6.534c-13.838,8.375-19.081,7.297-28.196-5.97c-4.487-6.532-8.352-13.297-7.034-22.137
	c2.505,1.688,2.977,4.564,5.094,7.055c-0.958-6.132-2.646-11.783,1.851-17.766c0.184,7.71,3.871,12.463,8.947,16.67
	c4.774,3.958,4.852,8.077,1.084,12.962c-0.917,1.189-2.046,2.378-1.203,4.012c0.858,1.662,2.474,1.889,4.181,1.867
	c5.813-0.076,10.833-2.583,15.863-5.089c3.342-1.665,6.622-3.49,10.07-4.9c4.659-1.906,9.384-1.939,13.375,1.552
	c4.563,3.99,7.194,9.014,6.074,15.272c-1.524,8.512-6.158,12.275-15.07,12.521c-4.12,0.114-8.253-0.022-12.361,0.243
	c-5.685,0.367-8.437,3.113-8.408,7.966c0.03,4.93,3.521,8.468,8.78,8.781c4.275,0.254,8.462-0.117,12.451-1.907
	c20.778-9.321,41.603-18.532,63.152-25.979c0.222-0.077,0.395-0.297,0.659-0.505c-1.32-1.736-3.27-2.581-5.049-3.658
	c-2.346-1.42-4.74-2.767-7.023-4.281c-9.107-6.036-11.525-13.693-7.921-23.977c0.85-2.424,1.574-2.458,3.558-1.143
	c11.328,7.515,22.733,14.911,34.123,22.332c3.761,2.451,7.576,4.822,11.315,7.306c1.108,0.737,2.244,0.875,4.103,1.079
	c-3.537-4.779-7.555-8.234-11.531-11.692c-10.005-8.701-20.791-16.349-32.074-23.297c-13.698-8.438-16.68-13.519-11.749-31.988
	c0.119-0.444,0.364-0.854,0.621-1.443c7.609,9.388,17.485,15.768,27.164,22.38c10.094,6.896,20.445,13.425,29.991,21.105
	c8.562,6.888,10.918,14.761,7.461,25.184c-1.312,3.953-2.61,7.91-3.56,12.033c4.526-4.822,7.615-10.443,9.143-16.856
	c2.855-11.996-2.195-21.084-11.363-28.037c-16.107-12.217-32.529-24.018-48.767-36.063c-2.998-2.224-5.941-4.588-8.582-7.217
	c-10.429-10.383-10.622-22.411-5.357-35.249c0.255,0.065,0.578,0.053,0.644,0.177c6.257,11.703,17.182,18.56,27.32,26.189
	c15.954,12.005,32.724,22.91,48.185,35.581c6.604,5.413,11.922,11.765,13.386,20.53c0.963,5.765-0.11,11.386-2.213,17.775
	c9.848-7.15,18.995-13.622,27.896-20.415c1.518-1.158,4.479-2.627,2.578-5.857c-0.142-0.242,1.429-1.531,2.243-2.29
	C355.653,145.968,355.657,145.973,352.569,141.503z"/>
<path fill-rule="evenodd" clip-rule="evenodd" fill="#999076" d="M124.71,333.901c1.121-0.086,2.137-0.112,3.357-0.218
	c1.445-0.125,3.798-1.818,4.13,1.091c0.25,2.199,0.891,5.118-3.151,5.328c-2.563,0.133-4.504,1.644-4.403,4.611
	c0.485,14.224,1.182,28.435,3.114,42.55c0.375,2.739,1.726,4.683,4.976,4.365c1.073-0.104,2.712-0.271,2.035,1.535
	c-0.644,1.721,1.055,4.959-2.271,5.012c-6.993,0.107-13.992-0.17-20.975,0.45c-0.791,0.07-1.775,0.06-1.437-1.002
	c0.572-1.793-0.826-4.634,1.512-5.313c4.997-1.453,4.746-4.914,4.436-8.872c-0.775-9.925-1.358-19.865-2.038-30.111
	c-1.736,0.741-1.774,2.229-2.17,3.383c-4.405,12.859-8.772,25.732-13.133,38.606c-1.035,3.055-4.103,4.859-7.09,4.121
	c-1.437-0.355-1.295-1.671-1.633-2.676c-4.658-13.835-9.301-27.674-13.959-41.508c-0.226-0.672-0.548-1.311-1.114-2.644
	c-1.228,5.783-1.07,10.95-1.454,16.059c-0.458,6.099-0.827,12.203-1.271,18.302c-0.219,3.015,0.724,4.871,4.145,4.684
	c1.279-0.071,3.167-0.447,2.639,1.851c-0.409,1.782,0.678,4.7-2.687,4.744c-5.993,0.079-11.992-0.404-17.977,0.278
	c-0.757,0.086-1.793,0.077-1.443-1.005c0.571-1.77-0.897-4.459,1.517-5.266c3.664-1.226,4.576-3.981,4.918-7.197
	c1.398-13.155,2.743-26.316,4.078-39.479c0.379-3.736-1.975-5.221-5.146-5.548c-2.183-0.226-3.262-0.826-2.667-3.201
	c0.476-1.9,0.346-3.67,3.542-3.368c5.576,0.526,11.24,0.431,16.848,0.183c2.715-0.12,3.598,0.841,4.316,3.264
	c3.581,12.079,7.366,24.098,11.07,36.139c0.214,0.696,0.224,1.49,1.467,2.03c2.29-6.894,4.578-13.694,6.805-20.515
	c1.975-6.049,3.994-12.086,5.759-18.196c0.618-2.137,1.654-2.728,3.718-2.61c3.115,0.178,6.244,0.107,9.366,0.143
	C123.441,333.945,123.629,333.867,124.71,333.901z"/>
<path fill-rule="evenodd" clip-rule="evenodd" fill="#999076" d="M341.551,332.93c3.328,0.078,6.166,0.725,9.205,1.458
	c2.291,0.553,2.444,1.776,1.589,3.572c-0.322,0.676-0.688,1.33-1.046,1.988c-3.238,5.962-3.256,5.991-8.904,2.769
	c-2.509-1.431-5.182-1.753-7.966-1.479c-3.887,0.382-6.067,2.829-6.078,6.718c-0.012,4.126,1.742,7.544,4.554,10.364
	c7.229,7.249,15.309,13.532,23.191,20.395c2.001-4.498,2.119-8.781,0.772-13.063c-1.217-3.868-4.345-3.853-7.66-3.478
	c-1.938,0.219-4.188,1.19-4.835-2.232c-0.875-4.624-1.084-4.836,3.793-5.263c9.571-0.837,19.166-1.394,28.749-2.104
	c2.247-0.167,2.927,0.925,2.63,2.94c-0.677,4.597-2.826,6.503-7.566,6.641c-2.623,0.076-5.248,0.054-7.871,0.102
	c-0.199,0.004-0.396,0.22-0.784,0.447c3.542,6.408,2.526,12.707-0.903,18.784c-0.939,1.665-0.277,2.412,0.899,3.371
	c3.294,2.681,6.466,5.515,9.801,8.14c2.319,1.824,2.702,3.2,0.004,5.126c-6.203,4.428-6.141,4.517-12.004-0.517
	c-2.181-1.87-4.088-4.596-6.606-5.39c-2.77-0.874-4.683,2.58-7.175,3.825c-7.348,3.673-14.896,3.999-22.575,1.715
	c-7.249-2.157-11.811-6.937-12.402-14.725c-0.558-7.33,3.229-12.519,9.31-15.824c3.147-1.711,3.301-2.618,0.949-5.157
	c-3.722-4.017-6.483-8.688-5.668-14.503c1.097-7.821,8.165-13.674,17.246-14.505c1.115-0.103,2.246-0.062,3.369-0.088
	C338.895,332.888,340.02,332.93,341.551,332.93z"/>
<path fill-rule="evenodd" clip-rule="evenodd" fill="#999076" d="M505.154,362.386c0.011,20.205-9.944,33.023-26.783,36.231
	c-18.274,3.482-32.515-7.155-34.428-25.624c-1.254-12.108,0.97-23.102,9.93-31.993c11.649-11.559,38.102-12.196,47.246,5.089
	C504.123,351.77,505.204,357.803,505.154,362.386z"/>
<path fill-rule="evenodd" clip-rule="evenodd" fill="#999076" d="M226.634,357.714c2.229,3.396,4.051,7.024,3.464,11.354
	c-1.116,8.235-7.435,14.368-16.219,15.729c-3.222,0.499-6.439,0.737-9.662,0.046c-2.273-0.487-3.771,0.544-4.17,2.656
	c-0.391,2.068,1.34,2.895,2.965,3.158c5.409,0.877,10.854,1.528,16.269,2.373c2.086,0.325,4.173,0.797,6.182,1.442
	c8.405,2.704,10.565,9.514,5.289,16.676c-4.3,5.837-10.401,8.779-17.266,10.339c-4.06,0.922-8.16,0.991-12.247,0.033
	c-3.773-0.883-7.144-2.589-9.284-5.848c-2.67-4.063-4.195-7.609,1.489-10.918c2.018-1.174,3.859-2.651,6.262-4.326
	c-3.208-1.139-6.049-1.988-8.03-4.321c-3.134-3.689-3.011-5.986,0.594-9.016c1.616-1.357,4.177-2.441,4.62-4.101
	c0.431-1.614-2.607-2.488-3.811-4.077c-7.955-10.503-0.835-25.858,13.016-27.864c2.585-0.375,5.196-0.78,7.802-0.114
	c6.214,1.587,12.13-0.026,17.974-1.822c2.625-0.807,3.428-0.626,3.11,2.467c-0.387,3.759-1.821,5.678-5.752,5.369
	C228.432,356.885,227.489,356.749,226.634,357.714z"/>
<path fill-rule="evenodd" clip-rule="evenodd" fill="#999076" d="M413.564,399.131c-23.04,0.55-32.497-16.578-30.604-35.984
	c2.021-20.726,18.042-31.822,38.145-30.279c4.498,0.345,8.906,1.125,13.336,1.845c2.035,0.33,3.013,1.181,2.437,3.588
	c-1.046,4.363-1.792,8.814-1.896,13.32c-0.069,2.971-1.344,4.007-4.354,3.972c-5.189-0.062-5.191,0.128-5.351-4.93
	c-0.148-4.762-2.006-6.981-6.721-8.034c-9.721-2.17-17.196,2.36-19.502,12c-2.056,8.595-1.603,17.109,1.656,25.354
	c1.88,4.756,5.174,8.202,10.274,9.605c7.577,2.084,13.584-1.582,15.854-9.618c0.389-1.375,0.068-3.495,1.763-3.813
	c2.543-0.478,5.218-0.414,7.824-0.3c0.996,0.043,0.483,1.203,0.415,1.87c-0.521,5.088-1.121,10.169-1.587,15.263
	c-0.177,1.924-1.542,2.423-2.969,2.896C426.21,397.906,419.998,399.161,413.564,399.131z"/>
<path fill-rule="evenodd" clip-rule="evenodd" fill="#FEFEFE" d="M275.882,77.211c8.001,16.925,22.888,27.151,35.482,39.456
	c6.44,6.291,12.771,12.666,18.227,19.829c8.93,11.724,8.458,18.701-2.169,30.047c-0.451-2.279-0.887-4.228-1.217-6.195
	c-2.171-12.937-10.476-21.77-19.989-29.743c-6.407-5.368-12.916-10.616-19.447-15.833
	C275.961,106.138,271.403,91.034,275.882,77.211z"/>
<path fill-rule="evenodd" clip-rule="evenodd" fill="#999075" d="M176.513,365.526c-0.605,5.958-1.263,11.912-1.802,17.877
	c-0.436,4.819,1.659,6.431,6.267,4.934c0.908-0.295,1.792-1.142,2.663,0.001c0.88,1.155,0.216,2.14-0.466,3.047
	c-1.2,1.595-2.344,3.257-3.719,4.692c-4.625,4.833-11.331,3.725-13.902-2.507c-1.044-2.532-1.696-2.155-3.196-0.635
	c-1.135,1.15-2.493,2.078-3.704,3.158c-5.025,4.486-10.658,2.48-14.262-0.519c-4.342-3.614-6.236-10.957-4.002-15.31
	c1.268-2.471,3.303-3.941,6.066-4.547c5.239-1.148,10.432-2.512,15.679-3.615c1.853-0.389,2.406-1.241,2.424-3.048
	c0.061-6.071-4.131-9.833-10.195-8.905c-2.875,0.439-5.458,1.688-7.967,3.139c-0.886,0.513-2.126,2.35-2.947,0.336
	c-0.717-1.759-2.759-4.444-0.626-5.68c6.758-3.915,13.562-8.241,22.041-6.818C172.742,352.448,176.774,357.423,176.513,365.526z"/>
<path fill-rule="evenodd" clip-rule="evenodd" fill="#999075" d="M292.246,350.923c1.107,0,1.732-0.013,2.356,0.001
	c9.781,0.215,10.57,1.133,9.071,10.461c-0.218,1.353-0.585,2.738-0.474,4.075c0.255,3.074-1.224,3.759-3.982,3.765
	c-2.067,0.004-2.965-0.38-2.847-2.609c0.177-3.35-0.646-6.323-4.396-7.291c-3.975-1.026-8.106,0.696-9.671,4.571
	c-2.908,7.203-2.472,14.428,1.398,21.226c1.58,2.778,4.311,4.018,7.541,4.147c2.813,0.112,5.39-0.822,8.048-1.491
	c1.266-0.317,2.783-2.613,3.999,0.023c1.007,2.185,1.681,4.011-1.131,5.959c-9.058,6.279-16.671,7.075-25.044,2.043
	c-1.846-1.11-3.421-2.51-4.75-4.186c-8.057-10.17-7.032-34.841,13.303-40.092C288.015,350.92,290.363,350.97,292.246,350.923z"/>
<path fill-rule="evenodd" clip-rule="evenodd" fill="#FEFEFE" d="M343.474,230.694c-0.315,12.488,0.142,24.064,2.346,35.533
	c0.901,4.691,2.651,9.069,4.506,13.424c1.33,3.121,3.29,5.516,6.884,6.227c1.737,0.343,3.102,1.468,4.369,2.74
	c1.253,1.257,1.847,2.408,1.246,4.297c-0.693,2.188-2.262,1.396-3.598,1.488c-2.741,0.189-5.5,0.203-8.227,0.512
	c-2.937,0.331-4.594-0.99-5.903-3.482c-1.546-2.945-1.733-6.219-2.724-9.285c-1.855-5.749-5.195-10.75-8.146-15.943
	c-2.531-4.453-4.813-8.985-5.946-14.049c-0.561-2.5-0.209-4.615,1.197-6.73C333.158,239.887,337.727,235.237,343.474,230.694z"/>
<path fill-rule="evenodd" clip-rule="evenodd" fill="#999075" d="M252.265,398.252c-3.242-0.035-6.481-0.144-9.714,0.372
	c-1.197,0.191-3.235,1.221-3.575-0.41c-0.388-1.866-0.676-4.772,1.627-5.611c3.942-1.436,4.384-4.271,4.352-7.724
	c-0.065-6.868-0.032-13.737-0.039-20.606c-0.003-2.875-0.978-4.907-4.281-4.86c-0.987,0.015-2.217,0.32-1.915-1.312
	c0.268-1.447-0.737-3.626,1.539-4.097c5.37-1.114,10.775-2.067,16.192-2.935c2.196-0.352,2.291,0.954,1.986,2.813
	c-1.821,11.126-1.861,22.364-1.889,33.599c-0.006,2.57,0.599,4.525,3.732,4.293c1.369-0.102,2.841-0.056,2.243,1.805
	c-0.526,1.636,0.657,4.423-2.395,4.637C257.519,398.397,254.886,398.252,252.265,398.252z"/>
<path fill-rule="evenodd" clip-rule="evenodd" fill="#FEFEFE" d="M252.825,292.359c-11.975,1.376-12.102,1.285-16.693-9.383
	c-2.564-5.958-4.731-12.027-5.791-18.459c-2.057-12.48,6.383-20.852,19.34-19.003c-1.521,7.441-4.796,14.379-6.064,21.895
	c-0.874,5.184-0.292,10.146,0.943,15.152c0.38,1.544,1.307,2.168,2.622,2.802C250.043,286.745,252.568,288.535,252.825,292.359z"/>
<path fill-rule="evenodd" clip-rule="evenodd" fill="#999075" d="M257.518,334.33c-0.006,4.814-2.883,7.759-7.586,7.761
	c-4.386,0.002-6.892-2.566-6.851-7.021c0.042-4.525,3.269-7.841,7.708-7.92C254.962,327.075,257.523,329.81,257.518,334.33z"/>
<path fill-rule="evenodd" clip-rule="evenodd" fill="#101119" d="M337.683,390.774c-7.602,0.029-12.402-2.883-13.818-8.394
	c-0.677-2.633-0.461-5.171,0.728-7.646c2.688-5.599,4.203-5.941,8.802-1.859c4.667,4.143,9.265,8.364,13.985,12.443
	c1.64,1.416,1.581,2.198-0.353,3.147C344.063,389.922,340.991,390.791,337.683,390.774z"/>
<path fill-rule="evenodd" clip-rule="evenodd" fill="#101119" d="M489.927,369.621c0.159,4.222-0.523,9.378-3.186,14.079
	c-5.115,9.03-17.881,9.716-23.188,0.795c-6.501-10.928-7.184-22.854-2.148-34.473c4.422-10.202,17.762-10.681,23.958-1.244
	C489.286,354.753,489.891,361.597,489.927,369.621z"/>
<path fill-rule="evenodd" clip-rule="evenodd" fill="#101119" d="M218.126,368.617c-0.102,6.265-2.627,9.702-6.974,10.086
	c-4.515,0.399-7.834-2.653-8.884-8.196c-0.374-1.974-0.375-3.939,0.097-5.917c1.039-4.358,3.238-6.472,6.928-6.561
	c3.719-0.089,6.866,2.201,8.014,6.054C217.8,365.734,217.932,367.494,218.126,368.617z"/>
<path fill-rule="evenodd" clip-rule="evenodd" fill="#101119" d="M210.079,414.762c-2.604-0.187-5.987-0.455-7.643-3.885
	c-1.432-2.966-0.021-5.568,1.789-7.936c0.698-0.914,1.515-1.683,2.831-1.44c4.042,0.744,8.195,0.969,12.09,2.388
	c3.574,1.303,4.244,4.572,1.618,7.379C218.74,413.431,214.837,414.799,210.079,414.762z"/>
<path fill-rule="evenodd" clip-rule="evenodd" fill="#11121A" d="M164.294,381.647c-0.21,5.091-2.928,7.829-7.654,7.605
	c-3.266-0.154-4.901-2.213-5.343-5.199c-0.409-2.768,1.316-4.007,3.796-4.566c1.567-0.354,3.093-0.883,4.642-1.32
	C164.492,376.82,164.493,376.823,164.294,381.647z"/>
</svg>
