<svg id="Layer_1" data-name="Layer 1" xmlns="http://www.w3.org/2000/svg" viewBox="0 0 448.38 317"><defs><style>.cls-1{fill:#fefefe;}.cls-1,.cls-2,.cls-3{fill-rule:evenodd;}.cls-2{fill:#fff;}.cls-3{fill:#9a9176;}</style></defs><title>logo menu</title><path class="cls-1" d="M352.57,141.5l7.06-2.18c0-1.46-2-1.45-2.19-3.11,4-.61,8-1.32,11.38-3.69-.77-1.53-2.61-2.07-3.17-4l11.77-2.79c-6.77-7.22-10.37-15-5.1-25,2,4.27,3.48,8.31,7.42,11,1.25-3.79.23-7.72,1.81-12,3,7.4,9.52,11.29,13.27,17,3.46,5.31,8.48,6.81,13.17,9.49a53.37,53.37,0,0,1,9.95,7.87c2.14,2,2.82,4.44,1.41,7.11-.94,1.75-.88,2.87.55,4.54,4.92,5.73,4.91,12.37,2.27,19-1.61,4.06-5.12,5.87-9.81,6.13.6-1.57,1.22-2.86,1.59-4.22a8,8,0,0,0-2.24-8.24c-1-1.05-2.43-1.72-3.73-1-1.67,1-.09,2.16.27,3.16.83,2.29,2.15,4.49.59,7.46-1.21-2-2.19-3.57-3.56-5.82V170c-1.78-.09-1.77-1.53-2.2-2.37-2.91-5.73-7.64-9-13.69-10.72a2.69,2.69,0,0,0-3.62,1.65,18.76,18.76,0,0,0-2.16,9.74,53.3,53.3,0,0,1-2.85,21.36c-1.64,5.08-4.39,9.16-9.55,11.29-11,4.53-19.27,12.43-26.85,21.4-8.14,9.63-16.19,19.34-24.42,28.89-5.68,6.59-7.38,13.78-5.4,21.9,1.58,6.47,2.73,13.29,8.89,17.53a5.67,5.67,0,0,1,1.66,2.86c1,2.57.73,4-2.53,3.67-2-.18-4,.17-6,.18-5.17,0-6-.54-6.63-5.83a37.9,37.9,0,0,0-6.15-17c-4.89-7.25-8.83-14.87-6.68-24.12.29-1.27-.28-1.83-1.5-2-12.22-1.87-23.81-6.5-36.14-7.94-12.73-1.49-23.84,1.71-32.63,11.19-6.05,6.52-13.34,11.68-19.28,18.29a22.91,22.91,0,0,0-5.84,10.69c-.79,3.8-1.18,7.38,2.29,10.28,1,.84,2,2.26,1.47,3.63s-2.19.84-3.34.95c-7.25.71-7.84.29-10-6.77a34.84,34.84,0,0,1-1.66-9.93c0-3.2.87-5.78,3.57-7.78,3.71-2.74,5.17-6.92,6.38-11.14,3.6-12.49,5.28-25.34,7.27-38.35-6.42,2.29-12.28,5.36-18.75,6.8a27.53,27.53,0,0,1-10.42.35,17.79,17.79,0,0,1-12-27.4c3.52-5.47,9.09-6.62,15-6.8,2.85-.09,5.72.33,8.59.41,7.08.2,11.14-4.47,8.89-10.13-1.66-4.2-4.92-5.67-9.37-4.17s-8.22,4.15-12.16,6.53c-13.84,8.38-19.08,7.3-28.19-6-4.49-6.53-8.36-13.29-7-22.13,2.51,1.68,3,4.56,5.1,7.05-1-6.13-2.65-11.78,1.85-17.77.18,7.71,3.87,12.47,8.94,16.67,4.78,4,4.86,8.08,1.09,13-.92,1.19-2.05,2.37-1.21,4s2.48,1.89,4.19,1.87c5.81-.08,10.83-2.59,15.86-5.09,3.34-1.67,6.62-3.49,10.07-4.9,4.66-1.91,9.38-1.94,13.37,1.55,4.57,4,7.2,9,6.08,15.27-1.53,8.51-6.16,12.28-15.07,12.52-4.12.12-8.26,0-12.36.24-5.69.37-8.44,3.12-8.41,8s3.52,8.47,8.78,8.78A26,26,0,0,0,193,218.24c20.78-9.32,41.6-18.53,63.15-26a2.94,2.94,0,0,0,.66-.51c-1.32-1.74-3.27-2.58-5.05-3.66-2.34-1.42-4.74-2.76-7-4.28-9.11-6-11.53-13.69-7.92-24,.85-2.42,1.57-2.45,3.56-1.14,11.32,7.52,22.73,14.91,34.12,22.33,3.76,2.45,7.58,4.83,11.31,7.31,1.11.74,2.25.87,4.11,1.08-3.54-4.78-7.56-8.24-11.53-11.69a241.19,241.19,0,0,0-32.08-23.3c-13.7-8.44-16.68-13.52-11.75-32a13.54,13.54,0,0,1,.62-1.44c7.61,9.39,17.49,15.77,27.17,22.38,10.09,6.89,20.44,13.42,30,21.1,8.56,6.89,10.92,14.76,7.46,25.19-1.31,4-2.61,7.91-3.56,12a36.61,36.61,0,0,0,9.14-16.86c2.86-12-2.19-21.08-11.36-28-16.11-12.22-32.53-24-48.77-36.07a77.77,77.77,0,0,1-8.58-7.21c-10.43-10.39-10.62-22.41-5.36-35.25.26.06.58,0,.65.18,6.26,11.7,17.18,18.55,27.32,26.18,16,12,32.72,22.91,48.18,35.59,6.61,5.41,11.93,11.76,13.39,20.53,1,5.76-.11,11.38-2.21,17.77,9.84-7.15,19-13.62,27.89-20.42,1.52-1.15,4.48-2.62,2.58-5.85-.14-.24,1.43-1.53,2.24-2.29C355.65,146,355.66,146,352.57,141.5Z" transform="translate(-56.78 -77.21)"/><path class="cls-2" d="M124.71,305.9c1.12-.08,2.14-.11,3.36-.22,1.44-.12,3.8-1.81,4.13,1.09.25,2.2.89,5.12-3.15,5.33-2.57.14-4.51,1.65-4.41,4.61a420.19,420.19,0,0,0,3.12,42.55c.37,2.74,1.72,4.69,5,4.37,1.08-.11,2.72-.27,2,1.53s1,5-2.27,5c-7,.11-14-.17-21,.46-.79.07-1.77.05-1.43-1,.57-1.79-.83-4.63,1.51-5.31,5-1.45,4.74-4.91,4.43-8.87-.77-9.93-1.35-19.87-2-30.11-1.74.74-1.78,2.23-2.17,3.38Q105.22,348,98.69,367.32a6.07,6.07,0,0,1-7.09,4.12c-1.43-.36-1.29-1.67-1.63-2.68Q83,348,76,327.25c-.23-.67-.55-1.31-1.11-2.64-1.23,5.78-1.07,10.95-1.46,16.06-.46,6.1-.83,12.2-1.27,18.3-.22,3,.72,4.87,4.15,4.68,1.27-.07,3.16-.44,2.63,1.85-.4,1.79.68,4.7-2.68,4.75-6,.08-12-.41-18,.28-.76.08-1.79.07-1.44-1,.57-1.77-.9-4.46,1.51-5.26,3.67-1.23,4.58-4,4.92-7.2q2.1-19.74,4.08-39.48c.38-3.74-2-5.22-5.14-5.55-2.19-.22-3.27-.82-2.67-3.2.47-1.9.34-3.67,3.54-3.37a123,123,0,0,0,16.85.19c2.71-.12,3.6.84,4.31,3.26C87.84,321,91.62,333,95.32,345.05c.22.7.23,1.49,1.47,2,2.29-6.9,4.58-13.69,6.81-20.52,2-6,4-12.08,5.76-18.19.61-2.14,1.65-2.73,3.71-2.61,3.12.18,6.25.11,9.37.14C123.44,306,123.63,305.87,124.71,305.9Z" transform="translate(-56.78 -77.21)"/><path class="cls-2" d="M341.55,304.93a41.69,41.69,0,0,1,9.21,1.46c2.29.55,2.44,1.77,1.58,3.57-.32.68-.68,1.33-1,2-3.24,6-3.26,6-8.91,2.77a12.94,12.94,0,0,0-8-1.48c-3.89.38-6.07,2.83-6.08,6.72a14.33,14.33,0,0,0,4.55,10.36c7.23,7.25,15.31,13.53,23.2,20.39a17.79,17.79,0,0,0,.77-13.06c-1.22-3.87-4.35-3.85-7.66-3.48-1.94.22-4.19,1.19-4.84-2.23-.87-4.62-1.08-4.83,3.8-5.26,9.57-.84,19.16-1.39,28.74-2.1,2.25-.17,2.93.92,2.63,2.94-.67,4.59-2.82,6.5-7.56,6.64-2.62.07-5.25,0-7.87.1-.2,0-.4.22-.79.44,3.55,6.41,2.53,12.71-.9,18.79-.94,1.66-.28,2.41.9,3.37,3.29,2.68,6.47,5.52,9.8,8.14,2.32,1.82,2.7,3.2,0,5.13-6.2,4.42-6.14,4.51-12-.52-2.18-1.87-4.09-4.6-6.61-5.39-2.77-.87-4.68,2.58-7.17,3.82a29.76,29.76,0,0,1-22.58,1.72c-7.24-2.16-11.81-6.94-12.4-14.73-.56-7.33,3.23-12.52,9.31-15.82,3.15-1.71,3.3-2.62.95-5.16-3.72-4-6.48-8.69-5.67-14.5,1.1-7.82,8.17-13.67,17.25-14.51,1.11-.1,2.25-.06,3.37-.08C338.89,304.89,340,304.93,341.55,304.93Z" transform="translate(-56.78 -77.21)"/><path class="cls-2" d="M505.15,334.39c0,20.2-9.94,33-26.78,36.23-18.27,3.48-32.51-7.16-34.43-25.63-1.25-12.11,1-23.1,9.93-32,11.65-11.56,38.1-12.2,47.25,5.09A35.11,35.11,0,0,1,505.15,334.39Z" transform="translate(-56.78 -77.21)"/><path class="cls-2" d="M226.63,329.71c2.23,3.4,4.05,7,3.47,11.36-1.12,8.23-7.44,14.37-16.22,15.73a26.36,26.36,0,0,1-9.66,0c-2.28-.48-3.77.55-4.17,2.66s1.34,2.89,3,3.16c5.41.87,10.86,1.52,16.27,2.37a40.76,40.76,0,0,1,6.18,1.44c8.41,2.71,10.57,9.52,5.29,16.68-4.3,5.83-10.4,8.78-17.26,10.34a27,27,0,0,1-12.25,0c-3.77-.88-7.14-2.59-9.28-5.85-2.67-4.06-4.2-7.61,1.48-10.92,2-1.17,3.86-2.65,6.27-4.32-3.21-1.14-6.05-2-8-4.32-3.14-3.69-3-6,.59-9,1.62-1.36,4.18-2.44,4.62-4.1s-2.61-2.49-3.81-4.08c-8-10.5-.84-25.86,13-27.86,2.58-.38,5.19-.78,7.8-.12,6.21,1.59,12.13,0,18-1.82,2.63-.8,3.43-.62,3.11,2.47-.39,3.76-1.82,5.68-5.75,5.37A2.7,2.7,0,0,0,226.63,329.71Z" transform="translate(-56.78 -77.21)"/><path class="cls-2" d="M413.56,371.13c-23,.55-32.49-16.58-30.6-36,2-20.73,18-31.82,38.14-30.28,4.5.34,8.91,1.12,13.34,1.84,2,.33,3,1.18,2.44,3.59a63.67,63.67,0,0,0-1.9,13.32c-.07,3-1.34,4-4.35,4-5.19-.06-5.19.13-5.35-4.93-.15-4.76-2-7-6.72-8-9.73-2.17-17.2,2.36-19.51,12A41.42,41.42,0,0,0,400.71,352c1.88,4.76,5.17,8.21,10.27,9.61,7.58,2.08,13.59-1.58,15.86-9.62.39-1.37.07-3.49,1.76-3.81a34,34,0,0,1,7.82-.3c1,0,.49,1.2.42,1.87-.52,5.09-1.12,10.17-1.59,15.26-.17,1.92-1.54,2.42-3,2.9A58.15,58.15,0,0,1,413.56,371.13Z" transform="translate(-56.78 -77.21)"/><path class="cls-1" d="M275.88,77.21c8,16.93,22.89,27.15,35.48,39.46,6.44,6.29,12.77,12.66,18.23,19.83,8.93,11.72,8.46,18.7-2.17,30-.45-2.28-.89-4.22-1.22-6.19-2.17-12.94-10.47-21.77-20-29.75-6.41-5.36-12.92-10.61-19.45-15.83C276,106.14,271.4,91,275.88,77.21Z" transform="translate(-56.78 -77.21)"/><path class="cls-2" d="M176.51,337.53c-.6,6-1.26,11.91-1.8,17.87-.44,4.82,1.66,6.43,6.27,4.94.91-.3,1.79-1.14,2.66,0s.22,2.14-.47,3.05a52.7,52.7,0,0,1-3.71,4.69c-4.63,4.83-11.33,3.72-13.91-2.51-1-2.53-1.69-2.15-3.19-.64-1.14,1.15-2.5,2.08-3.71,3.16-5,4.49-10.65,2.48-14.26-.52-4.34-3.61-6.23-10.95-4-15.31a8.44,8.44,0,0,1,6.07-4.54c5.23-1.15,10.43-2.52,15.67-3.62,1.86-.39,2.41-1.24,2.43-3.05.06-6.07-4.13-9.83-10.2-8.9a23,23,0,0,0-8,3.14c-.89.51-2.13,2.35-3,.33-.72-1.76-2.76-4.44-.63-5.68,6.76-3.91,13.57-8.24,22-6.81C172.74,324.45,176.77,329.42,176.51,337.53Z" transform="translate(-56.78 -77.21)"/><path class="cls-2" d="M292.25,322.92h2.35c9.78.22,10.57,1.14,9.07,10.47a17.72,17.72,0,0,0-.47,4.07c.25,3.07-1.22,3.76-4,3.77-2.07,0-3-.38-2.85-2.61.18-3.35-.65-6.33-4.4-7.29a8,8,0,0,0-9.67,4.57,23.5,23.5,0,0,0,1.4,21.22c1.58,2.78,4.31,4,7.54,4.15,2.82.11,5.39-.82,8.05-1.49,1.27-.32,2.78-2.61,4,0,1,2.19,1.68,4-1.13,6-9.06,6.28-16.67,7.08-25.05,2a17.76,17.76,0,0,1-4.75-4.18c-8.05-10.17-7-34.84,13.31-40.09A28.26,28.26,0,0,1,292.25,322.92Z" transform="translate(-56.78 -77.21)"/><path class="cls-1" d="M343.47,230.69c-.31,12.49.15,24.07,2.35,35.54a65.8,65.8,0,0,0,4.51,13.42c1.33,3.12,3.29,5.52,6.88,6.23a8.74,8.74,0,0,1,4.37,2.74c1.25,1.25,1.85,2.41,1.25,4.29-.7,2.19-2.27,1.4-3.6,1.49-2.74.19-5.5.21-8.23.51-2.94.34-4.59-1-5.9-3.48-1.55-2.94-1.74-6.22-2.73-9.28-1.85-5.75-5.19-10.75-8.14-15.95a51,51,0,0,1-6-14,8.13,8.13,0,0,1,1.2-6.73A63.64,63.64,0,0,1,343.47,230.69Z" transform="translate(-56.78 -77.21)"/><path class="cls-2" d="M252.26,370.25a58.39,58.39,0,0,0-9.71.37c-1.2.2-3.23,1.23-3.57-.41-.39-1.86-.68-4.77,1.62-5.61,3.94-1.43,4.39-4.27,4.36-7.72-.07-6.87,0-13.74,0-20.61,0-2.87-1-4.9-4.29-4.86-1,0-2.21.32-1.91-1.31.27-1.45-.74-3.62,1.54-4.1,5.37-1.11,10.77-2.06,16.19-2.93,2.2-.35,2.29.95,2,2.81-1.82,11.13-1.86,22.37-1.89,33.6,0,2.57.6,4.53,3.73,4.29,1.37-.1,2.84,0,2.24,1.81-.52,1.63.66,4.42-2.39,4.64C257.52,370.4,254.89,370.25,252.26,370.25Z" transform="translate(-56.78 -77.21)"/><path class="cls-1" d="M252.82,292.36c-12,1.38-12.1,1.28-16.69-9.38a79.67,79.67,0,0,1-5.79-18.46c-2.06-12.48,6.38-20.85,19.34-19-1.52,7.45-4.8,14.38-6.06,21.9a36.51,36.51,0,0,0,.94,15.15,4,4,0,0,0,2.62,2.8C250,286.74,252.57,288.54,252.82,292.36Z" transform="translate(-56.78 -77.21)"/><path class="cls-2" d="M257.52,306.33c0,4.81-2.88,7.76-7.59,7.76-4.38,0-6.89-2.57-6.85-7a7.68,7.68,0,0,1,7.71-7.92C255,299.08,257.52,301.81,257.52,306.33Z" transform="translate(-56.78 -77.21)"/><path class="cls-3" d="M337.68,362.77c-7.6,0-12.4-2.88-13.81-8.39a10.84,10.84,0,0,1,.72-7.65c2.69-5.6,4.21-5.94,8.81-1.86s9.26,8.37,14,12.45c1.64,1.41,1.58,2.2-.35,3.14A20.65,20.65,0,0,1,337.68,362.77Z" transform="translate(-56.78 -77.21)"/><path class="cls-3" d="M489.93,341.62a26.69,26.69,0,0,1-3.19,14.08c-5.11,9-17.88,9.72-23.19.8A36.61,36.61,0,0,1,461.4,322c4.43-10.2,17.77-10.68,24-1.24C489.29,326.75,489.89,333.6,489.93,341.62Z" transform="translate(-56.78 -77.21)"/><path class="cls-3" d="M218.13,340.62c-.11,6.26-2.63,9.7-7,10.08-4.51.4-7.83-2.65-8.88-8.19a13.75,13.75,0,0,1,.1-5.92c1-4.36,3.23-6.47,6.92-6.56a8,8,0,0,1,8,6.05A36.5,36.5,0,0,1,218.13,340.62Z" transform="translate(-56.78 -77.21)"/><path class="cls-3" d="M210.08,386.76c-2.61-.19-6-.45-7.64-3.88-1.44-3,0-5.57,1.78-7.94a2.83,2.83,0,0,1,2.84-1.44c4,.74,8.19,1,12.09,2.39,3.57,1.3,4.24,4.57,1.61,7.38C218.74,385.43,214.84,386.8,210.08,386.76Z" transform="translate(-56.78 -77.21)"/><path class="cls-3" d="M164.29,353.65c-.21,5.09-2.92,7.83-7.65,7.6-3.27-.15-4.9-2.21-5.34-5.2-.41-2.76,1.31-4,3.79-4.56,1.57-.36,3.1-.89,4.65-1.32C164.49,348.82,164.49,348.82,164.29,353.65Z" transform="translate(-56.78 -77.21)"/></svg>