<?xml version="1.0" standalone="no"?>
<!DOCTYPE svg PUBLIC "-//W3C//DTD SVG 20010904//EN"
 "http://www.w3.org/TR/2001/REC-SVG-20010904/DTD/svg10.dtd">
<svg version="1.0" xmlns="http://www.w3.org/2000/svg"
 width="32.000000pt" height="32.000000pt" viewBox="0 0 32.000000 32.000000"
 preserveAspectRatio="xMidYMid meet">
<metadata>
Created by potrace 1.16, written by Peter Selinger 2001-2019
</metadata>
<g transform="translate(0.000000,32.000000) scale(0.004250,-0.004250)"
fill="#000000" stroke="none">
<path d="M10 3765 l0 -3765 3760 0 3760 0 0 3765 0 3765 -3760 0 -3760 0 0
-3765z m3768 2574 c24 -33 130 -140 235 -238 339 -316 426 -420 457 -543 16
-62 1 -111 -57 -189 l-46 -64 -23 91 c-35 142 -65 195 -179 310 -55 55 -166
153 -247 218 -162 130 -215 193 -245 295 -18 61 -22 183 -9 246 l8 40 31 -54
c18 -30 52 -80 75 -112z m-629 61 c57 -78 177 -174 576 -460 247 -177 402
-298 444 -345 100 -114 132 -239 97 -375 -8 -30 -13 -56 -11 -58 5 -5 335 237
377 276 29 27 35 39 27 49 -9 10 0 23 37 57 l49 44 -22 24 c-13 13 -23 27 -23
30 0 3 23 12 52 18 51 13 52 13 30 31 -12 9 -22 19 -22 22 0 2 20 7 44 10 24
4 60 14 80 24 l36 17 -25 26 -25 27 79 18 79 18 -37 51 c-62 83 -78 167 -46
244 l16 37 30 -55 c31 -57 57 -90 71 -90 4 0 8 28 9 63 0 34 4 70 8 81 6 15
10 11 27 -25 11 -25 56 -81 107 -132 49 -49 86 -94 84 -100 -2 -7 37 -32 92
-59 66 -32 114 -64 154 -102 59 -58 64 -72 46 -124 -9 -27 -7 -35 14 -64 46
-62 58 -133 36 -213 -17 -61 -76 -115 -128 -115 -18 0 -19 2 -5 28 32 61 1
152 -52 152 -29 0 -29 0 -7 -59 9 -27 13 -56 9 -66 -6 -16 -10 -13 -31 21
l-24 39 -3 -55 -3 -55 -18 32 c-31 58 -81 106 -135 130 -29 12 -61 23 -70 23
-34 0 -54 -65 -57 -190 -4 -130 -30 -247 -70 -316 -22 -37 -44 -53 -154 -113
-106 -59 -140 -83 -197 -144 -173 -183 -452 -516 -487 -582 -55 -103 -4 -347
90 -430 19 -17 36 -44 39 -61 6 -30 4 -31 -33 -37 -48 -8 -117 -9 -137 -1 -18
7 -31 45 -46 134 -8 48 -25 88 -66 157 -86 145 -97 176 -98 273 -2 82 -3 85
-26 88 -14 2 -104 24 -200 48 -225 57 -335 71 -431 55 -129 -21 -178 -53 -377
-241 -195 -184 -229 -232 -239 -324 -5 -50 -3 -58 26 -93 46 -56 42 -70 -21
-75 -29 -2 -63 -1 -75 3 -31 11 -65 107 -71 201 l-5 77 43 42 c24 23 53 65 66
93 29 64 66 220 93 396 12 74 23 145 26 157 5 22 4 22 -67 -8 -116 -48 -196
-69 -260 -69 -89 0 -136 18 -189 71 -38 37 -49 57 -59 102 -25 110 16 214 103
259 36 19 60 23 171 25 110 2 134 5 155 21 50 37 53 101 6 148 -44 44 -91 31
-270 -75 -136 -81 -208 -85 -284 -16 -45 41 -123 154 -153 222 -22 49 -37 173
-22 173 5 0 24 -24 42 -52 19 -29 31 -44 27 -33 -26 82 -24 152 6 205 l14 25
3 -25 c9 -71 34 -118 92 -174 76 -74 93 -119 62 -168 -46 -71 -48 -79 -27 -94
43 -32 138 -8 296 75 155 80 212 81 290 3 46 -46 69 -97 69 -153 0 -45 -30
-115 -63 -147 -43 -40 -91 -52 -218 -52 -58 0 -120 -5 -137 -11 -40 -14 -62
-49 -62 -100 0 -57 50 -109 107 -110 120 -3 182 15 356 102 101 50 254 114
479 198 97 36 178 70 180 76 2 5 -37 34 -87 65 -119 73 -160 115 -180 184 -14
46 -14 65 -4 115 21 110 5 113 280 -66 408 -267 439 -286 439 -264 0 14 -171
173 -262 244 -46 36 -153 111 -238 167 -212 140 -243 171 -259 253 -8 45 1
138 20 209 l10 39 45 -50 c63 -70 137 -127 378 -290 360 -244 423 -300 451
-394 21 -72 19 -94 -21 -218 -19 -60 -34 -115 -32 -121 2 -6 19 12 37 41 116
181 116 352 0 486 -32 36 -186 154 -603 459 -283 207 -338 276 -345 433 -2 64
2 99 19 155 18 60 24 70 33 56 7 -9 32 -44 56 -78z m1431 -2082 c1 -230 42
-449 103 -539 12 -19 48 -46 81 -63 68 -35 82 -52 72 -89 -6 -27 -7 -27 -105
-27 -119 0 -123 3 -158 127 -16 60 -46 127 -93 208 -67 118 -110 222 -110 267
0 13 12 41 26 63 29 43 164 185 176 185 5 0 8 -60 8 -132z m-1254 -75 c-3 -10
-21 -69 -40 -130 -43 -138 -53 -219 -36 -307 11 -60 15 -68 45 -82 38 -18 60
-40 69 -70 6 -19 2 -22 -36 -28 -54 -7 -115 7 -133 31 -46 61 -136 334 -134
408 2 109 98 192 222 194 42 1 48 -1 43 -16z m83 -1109 c37 -47 23 -122 -28
-149 -46 -23 -79 -19 -113 15 -27 28 -30 36 -25 73 8 57 43 87 102 87 35 0 48
-5 64 -26z m1225 -56 c32 -6 60 -17 63 -24 4 -12 -52 -134 -63 -134 -3 0 -22
11 -42 25 -118 81 -235 37 -217 -81 9 -63 50 -111 219 -257 110 -95 151 -126
160 -117 6 6 11 45 11 91 0 77 -1 82 -29 106 -26 22 -35 24 -81 18 -51 -6 -53
-6 -59 22 -4 15 -9 36 -12 45 -6 22 13 25 236 38 96 6 187 13 201 16 19 3 28
0 33 -11 7 -18 -19 -85 -37 -97 -7 -4 -49 -8 -94 -8 -46 0 -83 -4 -83 -9 0 -5
7 -26 16 -47 20 -47 13 -128 -16 -184 -11 -22 -20 -43 -20 -48 0 -5 40 -42 89
-83 50 -41 90 -78 90 -84 1 -10 -83 -71 -105 -77 -6 -2 -48 28 -94 66 -69 58
-85 68 -99 58 -138 -99 -283 -118 -411 -54 -98 49 -137 132 -116 247 8 43 68
112 121 141 40 21 43 33 14 60 -12 10 -34 42 -50 69 -23 39 -29 62 -29 108 0
64 14 99 57 138 76 71 205 96 347 67z m1092 -3 c48 -9 90 -18 92 -20 2 -2 -4
-60 -14 -128 l-17 -125 -30 -6 c-16 -3 -42 -6 -58 -6 -28 0 -29 1 -29 53 0 88
-45 127 -146 127 -157 0 -237 -125 -221 -344 10 -142 64 -248 144 -282 48 -21
132 -18 171 6 33 20 82 105 82 142 0 13 13 18 55 23 31 4 58 5 61 2 3 -3 -1
-61 -8 -129 l-14 -123 -79 -24 c-115 -34 -295 -35 -376 -3 -105 42 -185 133
-215 244 -22 80 -19 230 5 309 73 235 289 337 597 284z m779 -11 c72 -25 164
-120 195 -199 45 -120 36 -315 -21 -427 -75 -146 -253 -241 -424 -225 -100 10
-153 34 -221 101 -83 82 -106 142 -112 292 -6 163 25 259 116 356 89 95 182
130 327 124 50 -2 112 -12 140 -22z m-5371 -87 c46 -161 137 -441 146 -451 5
-5 49 117 99 270 l91 279 145 2 145 3 0 -24 c0 -39 -11 -56 -35 -56 -13 0 -33
-8 -45 -18 -20 -17 -22 -26 -21 -108 2 -134 29 -474 42 -517 11 -39 44 -62 74
-51 12 5 15 -2 15 -27 0 -19 -4 -38 -8 -44 -4 -6 -72 -11 -159 -12 l-153 -2 0
34 c0 30 5 37 35 49 22 9 37 24 41 39 6 27 -22 477 -31 485 -3 3 -7 3 -9 1 -6
-6 -171 -486 -190 -551 -13 -45 -22 -59 -40 -64 -62 -15 -59 -21 -166 301 -55
164 -104 303 -109 308 -13 13 -18 -24 -31 -218 -16 -244 -14 -282 11 -296 12
-6 32 -9 45 -6 26 5 28 -1 18 -50 l-6 -29 -139 1 -139 0 0 37 c0 30 4 37 21
40 51 7 59 37 90 344 17 159 28 298 25 310 -6 23 -44 44 -83 44 -21 0 -24 3
-19 23 3 12 6 30 6 40 0 15 14 17 153 17 l152 0 29 -103z m1992 -128 c-3 -17
-6 -40 -6 -50 0 -15 -7 -19 -32 -19 -18 0 -43 -3 -55 -6 l-23 -6 26 -44 c23
-39 26 -53 22 -109 -5 -81 -41 -135 -119 -179 -49 -28 -63 -31 -153 -33 -104
-2 -129 -12 -124 -47 4 -31 39 -42 178 -60 69 -9 142 -21 164 -28 47 -15 93
-56 102 -92 18 -74 -54 -174 -165 -229 -62 -30 -72 -32 -176 -32 -105 0 -114
2 -153 27 -50 33 -71 63 -79 112 -6 39 3 51 84 103 24 16 43 31 43 35 0 3 -13
9 -28 13 -41 9 -91 54 -101 92 -9 31 -7 35 37 73 26 22 50 40 55 40 16 0 5 20
-32 57 -120 119 -46 331 130 373 32 8 87 10 152 6 82 -4 115 -2 167 13 93 26
94 26 86 -10z m-867 -23 c42 -22 78 -70 86 -114 3 -22 -1 -103 -11 -181 -15
-133 -15 -142 1 -167 13 -20 22 -25 43 -21 60 12 66 12 70 -4 4 -23 -99 -129
-126 -129 -47 0 -90 27 -112 70 l-22 42 -36 -34 c-57 -54 -83 -68 -125 -68
-96 0 -178 100 -164 203 9 66 34 82 187 117 74 17 139 35 144 40 4 4 5 27 1
51 -17 100 -106 128 -221 69 -32 -16 -59 -28 -60 -27 -1 1 -6 19 -12 39 -9 34
-8 38 16 54 15 10 63 33 107 51 70 30 88 33 142 29 34 -3 76 -12 92 -20z
m1177 -18 c-3 -24 -11 -134 -16 -246 -12 -234 -8 -255 48 -260 25 -3 32 -7 28
-19 -3 -8 -6 -24 -6 -36 0 -21 -4 -22 -128 -22 -70 -1 -138 -4 -152 -8 -24 -6
-25 -5 -22 33 3 31 9 41 32 50 44 18 50 46 50 228 0 188 -7 212 -60 212 -28 0
-29 2 -23 33 3 17 6 33 7 33 1 2 218 41 235 43 10 1 12 -9 7 -41z m563 31 c28
-6 53 -15 56 -19 3 -5 1 -40 -5 -77 -7 -37 -14 -83 -16 -100 -5 -31 -7 -33
-44 -33 -40 0 -40 0 -40 39 0 54 -7 69 -42 87 -31 16 -75 12 -111 -10 -37 -22
-57 -80 -57 -162 0 -97 16 -149 57 -191 30 -29 40 -33 87 -33 29 0 73 7 96 15
57 20 57 20 65 -17 9 -39 -9 -56 -103 -101 -56 -26 -70 -29 -120 -23 -188 22
-290 195 -237 400 47 178 213 268 414 225z"/>
<path d="M4358 2583 c-37 -40 -48 -66 -48 -115 0 -93 70 -148 190 -148 65 0
150 28 150 49 0 8 -253 241 -262 241 -3 0 -16 -12 -30 -27z"/>
<path d="M6235 2954 c-47 -24 -71 -52 -97 -107 -20 -46 -23 -67 -23 -177 0
-182 41 -287 129 -330 113 -54 233 4 271 132 19 66 20 235 0 307 -21 79 -62
140 -114 168 -52 27 -122 30 -166 7z"/>
<path d="M2739 2745 c-67 -37 -65 -202 2 -249 33 -23 100 -21 127 4 51 48 53
166 4 221 -33 36 -93 47 -133 24z"/>
<path d="M2710 2148 c-34 -56 -26 -109 21 -133 69 -36 205 -4 229 54 23 56 -7
78 -134 100 -87 16 -94 14 -116 -21z"/>
<path d="M2106 2485 c-43 -13 -83 -29 -87 -37 -15 -22 -10 -54 12 -82 25 -31
70 -35 124 -9 l35 17 0 68 c0 37 -1 68 -2 67 -2 0 -39 -11 -82 -24z"/>
</g>
</svg>
